<svg version="1.1" id="Layer_1" xmlns="http://www.w3.org/2000/svg" xmlns:xlink="http://www.w3.org/1999/xlink" x="0px" y="0px"
	 width="100%" viewBox="0 0 1024 1024" enable-background="new 0 0 1024 1024" xml:space="preserve">
<path fill="#000000" opacity="1.000000" stroke="none"
	d="
M585.175842,763.120972
	C635.099670,736.137573 665.178406,694.007263 681.128967,640.868896
	C683.005676,634.616821 686.228699,629.482300 690.689636,624.779724
	C707.118164,607.461487 720.601990,588.183594 728.984314,565.631165
	C729.448303,564.382874 729.956726,563.146301 730.333740,561.871521
	C732.188416,555.600342 731.309937,554.595215 724.638062,555.272095
	C710.165466,556.740356 701.224915,546.499756 703.937500,531.746216
	C705.564209,522.898865 708.821533,514.789062 714.468079,507.787659
	C717.230225,504.362671 716.479858,502.271240 712.840698,500.433350
	C706.104980,497.031647 699.038818,494.660950 691.602295,493.427124
	C689.989441,493.159546 688.216797,493.497986 686.872437,491.380280
	C689.407776,485.093872 693.534851,479.499268 697.705200,473.938446
	C703.659363,465.998993 711.098145,459.622009 718.876465,453.544403
	C724.359619,449.260101 724.221680,449.056213 720.289429,443.342743
	C716.413696,437.711273 713.578369,431.747437 715.033936,424.677368
	C716.927246,415.480682 723.754333,411.413879 732.900391,413.870667
	C734.329712,414.254578 735.726868,414.758209 737.293762,415.255646
	C739.507568,412.176910 739.289856,408.516022 740.361450,405.282257
	C742.584229,398.574127 746.473145,394.870239 752.053589,394.696869
	C757.776184,394.519043 761.315491,397.648468 763.671021,404.932526
	C763.957214,405.817566 764.359802,406.665009 764.940369,408.105316
	C769.349426,400.308807 775.786011,398.183655 783.481445,400.213318
	C791.179443,402.243652 797.651978,410.803375 798.284973,419.231873
	C798.906677,427.509308 798.280762,435.601654 793.174072,442.616760
	C791.597412,444.782776 792.152344,446.120941 794.049683,447.597656
	C822.447144,469.699066 836.409302,499.849091 842.437317,534.430542
	C842.740112,536.167786 843.477051,537.829346 844.206421,540.143616
	C849.087952,526.791260 852.408264,513.741150 853.841858,500.077332
	C856.080444,478.740540 854.511597,457.820282 847.569885,437.585388
	C832.729858,394.326904 805.398987,362.785706 760.921875,348.257721
	C743.680176,342.625946 725.961975,342.468109 708.196228,345.892822
	C695.725647,348.296814 686.206665,344.751801 681.202759,335.862640
	C679.881042,333.514587 679.340088,330.914337 678.571106,328.366516
	C661.454224,271.654205 630.825562,225.922302 574.239807,201.920929
	C550.565247,191.879166 525.642212,188.579773 499.976318,191.124268
	C441.958588,196.876129 400.081238,227.352707 369.931183,275.844025
	C363.595642,286.033691 357.591766,296.412933 352.432007,307.258972
	C351.729004,308.736725 351.117706,310.258087 350.074402,312.653778
	C361.087830,315.356079 370.730164,312.126190 380.260345,308.642853
	C390.049164,305.064880 397.996857,298.485199 406.203461,291.138977
	C411.535278,304.134003 409.768066,315.661102 403.111176,326.525909
	C395.197357,339.442230 382.478210,345.398682 368.494934,349.255371
	C367.695099,349.475983 366.856689,349.563354 366.065521,349.807617
	C361.583832,351.191284 361.141022,352.611816 364.434265,355.884613
	C368.455719,359.881104 372.485901,363.849945 375.880859,368.417206
	C383.823120,379.101837 386.783173,390.874207 384.744751,404.161987
	C383.061737,415.132843 386.020782,425.624481 389.819153,435.836548
	C396.207245,453.011261 402.541412,470.278168 411.660248,486.198547
	C425.998535,511.231598 407.845245,535.841125 389.935791,542.953918
	C371.650604,550.216003 353.751038,548.633057 338.558868,536.357727
	C328.824463,528.492249 318.556305,525.296143 306.724121,524.338745
	C291.695099,523.122681 277.736328,518.393799 265.276031,509.845581
	C261.899017,507.528839 260.093658,508.103027 258.127502,511.230804
	C245.483215,531.345581 235.730377,552.597473 234.663574,576.726379
	C234.214310,586.888306 238.545471,595.875977 245.765533,603.187927
	C260.394379,618.002930 278.571533,625.510559 298.817047,628.649231
	C303.376251,629.356079 307.941711,630.378784 312.884491,629.137207
	C311.269257,624.905396 308.227295,621.742310 306.018524,618.093018
	C297.577881,604.147461 292.955841,589.061340 291.912292,572.820801
	C291.656281,568.836731 293.533173,568.321716 296.838501,569.185364
	C325.005432,576.544434 346.711670,592.285156 360.627258,618.183960
	C361.329620,619.491089 362.047211,620.790039 362.768738,622.113098
	C365.240326,622.030273 366.926971,620.518433 368.704803,619.438293
	C399.004547,601.029297 431.812042,589.565430 466.861816,584.896362
	C511.891083,578.897949 555.070679,584.918945 595.504883,606.605652
	C614.500854,616.794067 630.972778,630.149353 645.296997,646.248169
	C648.220825,649.534119 648.914734,652.150757 646.602051,656.322083
	C629.731995,686.750549 605.356812,708.674683 573.339111,722.220398
	C570.054321,723.610168 567.340515,723.174744 564.378540,721.486511
	C543.021301,709.313354 531.481079,690.611450 527.629395,666.703857
	C525.837463,655.581055 526.528198,644.495483 527.903870,633.408569
	C528.002747,632.611816 528.358398,631.807922 526.797302,630.380005
	C515.934875,647.226624 511.876343,664.874023 516.345825,684.336182
	C520.767822,703.591553 532.248047,718.060974 548.241577,730.211853
	C541.578186,733.773010 534.971802,734.507446 528.559998,735.229004
	C469.337433,741.893372 416.766968,725.044617 369.494690,689.764282
	C366.179871,687.290405 362.809784,684.890564 358.816620,681.984070
	C342.971283,708.825867 319.192871,722.617859 288.355072,726.303589
	C288.587402,707.463867 295.533783,691.368347 304.972534,675.773804
	C299.229340,672.645813 293.255463,673.019226 287.703674,671.833496
	C237.440277,661.097900 199.284210,633.027588 171.190674,590.626587
	C155.975266,567.662354 145.906708,542.381897 143.025574,515.064209
	C136.809464,456.125977 153.190414,405.097748 199.145599,365.524384
	C207.386658,358.427734 216.784546,352.940674 226.828079,348.742889
	C230.890106,347.045105 232.736359,345.244781 231.780640,340.257935
	C229.339417,327.519806 234.057281,318.570679 245.488785,312.106537
	C256.336761,305.972321 268.031921,302.247925 280.377960,303.823700
	C294.264984,305.596161 302.480438,299.560547 308.944580,288.126007
	C317.791504,272.476440 326.511261,256.731628 336.472931,241.725143
	C363.461670,201.068588 398.788452,170.914200 445.412781,154.951538
	C470.870026,146.235809 497.159454,141.960068 523.935059,143.933670
	C602.844788,149.750046 661.358398,187.783020 699.519592,257.122528
	C705.958496,268.822052 711.471008,280.948730 715.969055,293.497101
	C717.400330,297.490082 719.343384,298.905060 723.525269,298.677643
	C763.529114,296.502167 799.113708,308.739990 830.294189,333.262726
	C865.124939,360.656311 886.259277,396.920319 896.343933,439.864532
	C900.554260,457.793365 902.535278,476.002808 901.187012,494.301880
	C897.353760,546.326965 878.969604,592.013306 840.234131,628.153198
	C814.191040,652.451111 783.323914,667.114319 748.065063,672.475708
	C740.324951,673.652649 732.569397,674.746826 724.738403,674.285645
	C720.438171,674.032349 718.542358,675.997131 717.117188,679.762451
	C703.230164,716.452148 681.484741,747.828186 652.316345,773.967407
	C621.211670,801.841919 585.250427,820.556396 543.881836,827.025208
	C481.601135,836.764221 425.048157,821.967407 374.455292,784.385742
	C371.245575,782.001465 368.028809,779.617981 364.935394,777.087341
	C353.919189,768.075439 352.465302,753.656738 361.374847,742.444519
	C368.933990,732.931763 383.411591,732.036743 394.184784,740.287781
	C419.005005,759.297058 446.359528,772.846252 477.281219,778.677979
	C514.890625,785.770996 550.714844,780.452698 585.175842,763.120972
M334.007355,423.585449
	C339.360931,425.012939 344.630127,427.114136 350.341248,426.087341
	C350.568085,410.967896 334.433594,399.740784 322.105774,406.106659
	C322.159180,414.213654 325.770264,420.024841 334.007355,423.585449
M571.428772,647.280579
	C571.885803,649.626404 573.045776,651.563416 574.700806,653.280457
	C577.603882,656.292297 581.049438,657.587097 585.038147,656.150269
	C589.113647,654.682190 591.515442,651.467102 592.041321,647.240967
	C592.535583,643.268188 590.424988,640.365479 587.280640,638.041382
	C581.738953,633.945374 572.287537,637.276611 571.428772,647.280579
M742.458313,485.058990
	C748.946289,488.918121 755.842224,486.082062 756.624146,479.210175
	C757.153931,474.554474 754.774841,471.503876 750.729431,469.926880
	C746.728821,468.367340 743.175781,469.696838 740.640747,473.100586
	C737.563721,477.231964 738.306091,481.112061 742.458313,485.058990
z"/>
<path fill="#000000" opacity="1.000000" stroke="none"
	d="
M562.195129,337.795105
	C577.351746,352.753967 580.880188,370.449493 574.899841,389.918732
	C570.383362,404.622559 556.634827,411.670502 541.640930,408.216339
	C535.071716,406.702972 531.919983,402.659912 531.631409,395.771820
	C531.325745,388.478851 532.613586,381.110107 530.691772,373.894684
	C527.698975,362.657959 517.481323,355.859619 506.089569,357.483459
	C495.845734,358.943695 489.531219,367.290375 489.192902,378.960114
	C488.879059,389.787262 494.572174,397.617615 501.432922,404.826630
	C511.690186,415.604584 523.782776,424.273773 535.324524,433.572510
	C547.043030,443.013702 558.140259,453.050079 565.693237,466.371582
	C577.934326,487.961700 576.318604,516.114258 561.176025,535.547302
	C551.301331,548.219910 537.670593,554.878296 522.084717,557.697083
	C498.502014,561.962219 476.003418,559.244690 455.317413,546.468262
	C434.091919,533.358643 425.889343,506.966034 435.650848,483.981720
	C440.804565,471.846954 455.248474,464.840912 466.863953,468.829987
	C471.800140,470.525238 474.449280,473.591309 474.449005,479.181061
	C474.448639,486.306183 473.977661,493.416504 475.198303,500.582855
	C477.772858,515.698792 490.015228,521.929321 502.706848,520.172913
	C517.431335,518.135132 524.794983,504.969971 522.234741,491.199036
	C520.550415,482.139496 515.028015,475.646454 508.213776,470.013458
	C495.995300,459.913116 482.245911,451.943329 469.661285,442.345886
	C457.165436,432.816101 445.887207,422.209015 440.920258,406.769745
	C433.221313,382.838379 435.388885,360.305847 452.759003,340.964752
	C463.699066,328.783325 478.388733,323.245514 494.210663,320.981781
	C514.288147,318.109100 533.671326,320.586945 551.804443,330.291626
	C555.502136,332.270660 558.815308,334.769165 562.195129,337.795105
z"/>
<path fill="#000000" opacity="1.000000" stroke="none"
	d="
M601.917480,552.194031
	C591.212341,545.085571 586.888916,534.893799 585.602478,522.908203
	C583.317749,501.621582 587.826111,480.894257 590.747314,460.065796
	C593.950806,437.224640 597.959961,414.499237 604.754761,392.395203
	C608.129822,381.415771 611.872620,370.516235 618.487122,360.945557
	C624.677795,351.988098 633.260986,348.608704 642.625977,351.159973
	C652.193237,353.766357 657.160400,360.165283 658.397217,371.214569
	C660.546631,390.417633 656.437500,408.928192 651.807983,427.276062
	C646.201294,449.496277 639.827637,471.522003 633.994507,493.686798
	C632.778564,498.307281 632.305420,503.149475 631.791992,507.921997
	C631.138123,514.000671 635.267151,518.332031 641.501099,518.663025
	C646.588562,518.933167 651.390808,517.643433 656.195068,516.304504
	C658.116211,515.769043 659.979980,515.031189 661.889587,514.450317
	C673.289246,510.983093 679.330078,516.427002 677.929260,528.490051
	C676.760498,538.554138 671.549866,546.121155 663.343201,551.215820
	C643.348206,563.628540 622.809387,563.054138 601.917480,552.194031
z"/>
</svg>
